<?xml version="1.0" encoding="utf-8"?>
<!-- Generator: Adobe Illustrator 28.3.0, SVG Export Plug-In . SVG Version: 6.00 Build 0)  -->
<svg version="1.1" id="Layer_3" xmlns="http://www.w3.org/2000/svg" xmlns:xlink="http://www.w3.org/1999/xlink" x="0px" y="0px"
	 viewBox="0 0 68 68" style="enable-background:new 0 0 68 68;" xml:space="preserve">
<style type="text/css">
	.st0{fill:#1C1B1F;}
	.st1{fill:#FFFFFF;}
</style>
<g>
	<path class="st0" d="M66,38.8c0.1,1,0.3,6.7,0.7,17.9c0.1,1.6,0.1,4.1-1.5,5.7c-1.8,1.8-4.7,1.4-5.8,1.4c-16.8-0.1-33.6-0.1-50.5,0
		c-1.2,0-4.4,0.3-6.2-1.6c-1.5-1.6-1.5-3.9-1.5-5.5c0.3-10.2,0.4-15.4,0.7-18c1.2-10.9,0.7-10.7,1.6-14c0.8-3,2-7.3,5.3-11.8
		c4.3-5.8,10.6-9.6,18.3-12.1C29,0.4,31.4,0,34.2,0c0.4,0,3.5,0,7,0.9C45.6,2,53.9,5.2,59.3,13c2.6,3.8,3.5,7.2,4.7,11.7
		C64.4,26,64.6,27.1,66,38.8z M35.9,20.5"/>
</g>
<path class="st1" d="M12.1,20.3c0.8,0.5,5.8,3.7,12.2,2c5.4-1.4,8.2-5.3,8.9-6.3c0.7,0.9,5.7,6.7,13.5,6.7c4.3,0,7.5-1.7,9-2.6
	c0.5,1.2,4.1,11.4-1.8,21C46.8,52.6,32.7,52,32,51.9c-1.9-0.1-9.5-0.7-15.3-6.9C10.8,38.7,9.1,29.2,12.1,20.3z"/>
<g>
	<circle class="st0" cx="25.7" cy="30.6" r="4.4"/>
	<circle class="st0" cx="42.3" cy="30.6" r="4.4"/>
</g>
</svg>
