<?xml version="1.0" encoding="UTF-8"?>
<svg id="Layer_3" data-name="Layer 3" xmlns="http://www.w3.org/2000/svg" viewBox="0 0 65.47 63.82">
  <defs>
    <style>
      .cls-1 {
        fill: #1c1b1f;
        stroke-width: 0px;
      }
    </style>
  </defs>
  <path class="cls-1" d="M65.45,56.68c-.38-11.23-.56-16.85-.69-17.89-1.39-11.65-1.66-12.8-2-14.07-1.21-4.47-2.11-7.93-4.74-11.71C52.61,5.21,44.32,1.96,39.92.87,36.45.01,33.33,0,32.92,0c-2.81,0-5.18.42-6.94.87-7.67,2.43-13.95,6.3-18.26,12.06-3.36,4.49-4.5,8.82-5.33,11.79-.91,3.27-.45,3.14-1.65,14-.29,2.59-.43,7.71-.73,17.95-.04,1.51-.08,3.85,1.46,5.46,1.87,1.96,5.03,1.65,6.23,1.65,16.82-.08,33.64-.09,50.45.01,1.06,0,3.97.35,5.78-1.43,1.61-1.59,1.56-4.05,1.51-5.68ZM52.69,41.12c-7.2,11.52-21.3,10.84-21.97,10.8-1.91-.12-9.51-.74-15.3-6.91-5.9-6.28-7.58-15.8-4.54-24.69.83.53,5.84,3.65,12.19,2.03,5.39-1.38,8.22-5.28,8.91-6.29.74.9,5.66,6.66,13.54,6.68,4.28.01,7.49-1.68,9-2.62.47,1.22,4.14,11.42-1.83,21Z"/>
  <g>
    <circle class="cls-1" cx="24.43" cy="30.64" r="4.38"/>
    <circle class="cls-1" cx="41.04" cy="30.64" r="4.38"/>
  </g>
</svg>