<?xml version="1.0" encoding="UTF-8"?>
<svg id="Layer_2" data-name="Layer 2" xmlns="http://www.w3.org/2000/svg" viewBox="0 0 54.55 67.96">
  <defs>
    <style>
      .cls-1 {
        fill: #1c1b1f;
        stroke-width: 0px;
      }
    </style>
  </defs>
  <g id="Layer_3" data-name="Layer 3">
    <path class="cls-1" d="M48.43,8.56L40.43,0l-14.91,13.96h-9.66c.47.46,1.16,1.15,2,2,5.7,5.8,8.85,9,11,13,.62,1.15,2.71,5.25,3,10,.73,11.91-10.32,20.71-12,22-5.33-5.33-10.67-10.67-16-16v23h37v-21.26l6.52-6.1c9.14-8.56,9.62-22.9,1.06-32.04Z"/>
    <path class="cls-1" d="M-1.41,26.47h15.56c9.37,0,16.97,7.6,16.97,16.97H4.98c-3.52,0-6.38-2.86-6.38-6.38v-10.59h0Z" transform="translate(29.07 -.27) rotate(45)"/>
  </g>
</svg>