<?xml version="1.0" encoding="UTF-8"?>
<svg id="Layer_2" data-name="Layer 2" xmlns="http://www.w3.org/2000/svg" viewBox="0 0 68 68">
  <defs>
    <style>
      .cls-1 {
        fill: #1c1b1f;
        stroke-width: 0px;
      }
    </style>
  </defs>
  <g id="Layer_2-2" data-name="Layer 2">
    <path class="cls-1" d="M34,0C15.22,0,0,15.22,0,34s15.22,34,34,34,34-15.22,34-34S52.78,0,34,0ZM34,61c-14.91,0-27-12.09-27-27,0-.07,0-.13,0-.2,3.15-1.16,7.18-3.2,10.99-6.8,4.7-4.44,6.96-9.27,8-12,2.01,2.41,8.67,9.77,20,12,5.66,1.11,10.58.56,14.02-.2.63,2.29.98,4.71.98,7.2,0,14.91-12.09,27-27,27Z"/>
    <circle class="cls-1" cx="23.38" cy="37.75" r="4.38"/>
    <circle class="cls-1" cx="44.38" cy="37.75" r="4.38"/>
  </g>
</svg>