<?xml version="1.0" encoding="UTF-8"?>
<svg id="Layer_2" data-name="Layer 2" xmlns="http://www.w3.org/2000/svg" viewBox="0 0 68 63.25">
  <defs>
    <style>
      .cls-1 {
        fill: #1c1b1f;
        stroke-width: 0px;
      }
    </style>
  </defs>
  <g id="Layer_5" data-name="Layer 5">
    <polygon class="cls-1" points="37 33.75 37 19 31 19 31 33.27 31 36.25 31.75 37 42.24 47.49 46.49 43.24 37 33.75"/>
    <path class="cls-1" d="M33.75,6c-15.81,0-28.62,12.82-28.62,28.62s12.82,28.62,28.62,28.62,28.62-12.82,28.62-28.62S49.56,6,33.75,6ZM33.75,56.88c-12.29,0-22.25-9.96-22.25-22.25s9.96-22.25,22.25-22.25,22.25,9.96,22.25,22.25-9.96,22.25-22.25,22.25Z"/>
    <path class="cls-1" d="M0,14C4.67,9.33,9.33,4.67,14,0c1.67,1.67,3.33,3.33,5,5-4.67,4.67-9.33,9.33-14,14-1.67-1.67-3.33-3.33-5-5Z"/>
    <path class="cls-1" d="M68,14c-4.67-4.67-9.33-9.33-14-14-1.67,1.67-3.33,3.33-5,5,4.67,4.67,9.33,9.33,14,14,1.67-1.67,3.33-3.33,5-5Z"/>
  </g>
</svg>