<?xml version="1.0" encoding="UTF-8"?>
<svg id="Layer_2" data-name="Layer 2" xmlns="http://www.w3.org/2000/svg" viewBox="0 0 50 50">
  <defs>
    <style>
      .cls-1 {
        fill: #fff;
      }

      .cls-1, .cls-2, .cls-3, .cls-4 {
        stroke-width: 0px;
      }

      .cls-2 {
        fill: #677783;
      }

      .cls-3 {
        fill: #dde3e0;
      }

      .cls-4 {
        fill: #212121;
      }
    </style>
  </defs>
  <g id="Layer_4" data-name="Layer 4">
    <g>
      <circle class="cls-4" cx="25" cy="25" r="25"/>
      <circle class="cls-3" cx="25" cy="25" r="23.35"/>
      <path class="cls-2" d="m48.35,25c0-12.81-10.54-23.35-23.35-23.35,11.3,2.34,19.37,12.44,19.15,23.82-.22,11.04-8.19,20.62-19.15,22.88,12.81,0,23.35-10.54,23.35-23.35Z"/>
      <path class="cls-4" d="m34.62,12.27c0,.86-.35,1.64-.91,2.2-.56.56-1.34.91-2.2.91h-3.85v16.36c.05.33.07.66.07,1,0,3.72-3.01,6.74-6.74,6.74s-6.74-3.02-6.74-6.74,3.02-6.74,6.74-6.74c1.23,0,2.38.33,3.37.9V10.49c0-.74.59-1.33,1.33-1.33h5.81c1.72,0,3.11,1.4,3.11,3.11Z"/>
      <circle class="cls-1" cx="20.99" cy="32.74" r="3.8"/>
    </g>
  </g>
</svg>