<?xml version="1.0" encoding="UTF-8"?>
<svg id="Layer_1" data-name="Layer 1" xmlns="http://www.w3.org/2000/svg" viewBox="0 0 532 222.5">
  <defs>
    <style>
      .cls-1 {
        fill: none;
        stroke: #fff;
        stroke-linecap: round;
        stroke-linejoin: round;
        stroke-width: 20px;
      }

      .cls-2 {
        fill: #d74214;
        stroke-width: 0px;
      }
    </style>
  </defs>
  <g>
    <path class="cls-1" d="M37.27,100.13c-7.17,0-12.64-1.34-16.42-4.03-3.78-2.69-5.66-6.75-5.66-12.19v-8.83c0-3.71,1.06-6.64,3.17-8.79,2.11-2.14,4.86-3.21,8.26-3.21s6.14.92,8.26,2.76c2.11,1.84,3.17,4.38,3.17,7.61s-1.06,5.77-3.17,7.61c-2.11,1.84-4.86,2.76-8.26,2.76h-.96v1.13c0,2.25.7,4.02,2.11,5.3,1.41,1.28,3.55,1.92,6.43,1.92h6.14c2.88,0,5.02-.66,6.43-1.97,1.41-1.31,2.11-3.12,2.11-5.42v-18.24c0-4.22-1.33-7.54-3.98-9.94-2.66-2.4-6.32-3.6-10.99-3.6-2.24,0-4.26.24-6.05.72-1.79.48-3.41,1.14-4.85,1.97-1.44.83-2.69,1.79-3.74,2.88-1.06,1.09-1.97,2.24-2.74,3.46l-6.34-5.76c1.98-3.07,5.01-5.7,9.07-7.87,4.06-2.17,9.33-3.26,15.79-3.26,7.74,0,13.73,1.86,17.95,5.57,4.22,3.71,6.34,8.87,6.34,15.46v17.76c0,5.44-1.89,9.5-5.66,12.19-3.78,2.69-9.25,4.03-16.42,4.03ZM27.09,78.43c1.47,0,2.64-.45,3.5-1.34.86-.9,1.3-2.11,1.3-3.65s-.43-2.75-1.3-3.65c-.86-.89-2.03-1.34-3.5-1.34s-2.64.45-3.5,1.34c-.86.9-1.3,2.11-1.3,3.65s.43,2.75,1.3,3.65,2.03,1.34,3.5,1.34Z"/>
    <path class="cls-1" d="M96.31,98.98v-35.81c0-3.26-.83-5.78-2.5-7.54-1.67-1.76-4.22-2.64-7.68-2.64-3.07,0-5.55.71-7.44,2.11-1.89,1.41-3.47,3.14-4.75,5.18l-6.34-5.47c1.73-2.88,4.13-5.22,7.2-7.01,3.07-1.79,7.17-2.69,12.29-2.69,6.4,0,11.28,1.5,14.64,4.51,3.36,3.01,5.04,7.33,5.04,12.96v36.38h-10.46Z"/>
    <path class="cls-1" d="M130.19,98.98v-33.31h-.77c-3.33,0-6.03-.91-8.11-2.74-2.08-1.82-3.12-4.33-3.12-7.54s1.04-5.71,3.12-7.54c2.08-1.82,4.78-2.74,8.11-2.74s6.03.91,8.11,2.74c2.08,1.82,3.12,4.34,3.12,7.54v14.78l16.7-8.06c-1.34-1.6-2.02-3.74-2.02-6.43,0-3.26,1.04-5.82,3.12-7.68,2.08-1.86,4.78-2.78,8.11-2.78s6.03.93,8.11,2.78c2.08,1.86,3.12,4.42,3.12,7.68,0,2.62-.67,4.79-2.02,6.48-1.34,1.7-3.14,2.86-5.38,3.5,1.47,1.15,2.21,2.85,2.21,5.09v28.22h-10.46v-31.1h-.48l-21.02,9.98v21.12h-10.46ZM129.14,60.29c1.41,0,2.53-.45,3.36-1.34.83-.9,1.25-2.08,1.25-3.55s-.42-2.66-1.25-3.55c-.83-.9-1.95-1.34-3.36-1.34s-2.53.45-3.36,1.34c-.83.9-1.25,2.08-1.25,3.55s.42,2.66,1.25,3.55c.83.9,1.95,1.34,3.36,1.34ZM166.58,60.77c1.54,0,2.74-.38,3.6-1.15.86-.77,1.3-1.82,1.3-3.17v-1.73c0-1.34-.43-2.4-1.3-3.17-.86-.77-2.06-1.15-3.6-1.15s-2.74.38-3.6,1.15c-.86.77-1.3,1.82-1.3,3.17v1.73c0,1.34.43,2.4,1.3,3.17.86.77,2.06,1.15,3.6,1.15Z"/>
    <path class="cls-1" d="M215.06,98.98v-35.81c0-3.26-.83-5.78-2.5-7.54-1.67-1.76-4.22-2.64-7.68-2.64-3.07,0-5.55.71-7.44,2.11-1.89,1.41-3.47,3.14-4.75,5.18l-6.34-5.47c1.73-2.88,4.13-5.22,7.2-7.01,3.07-1.79,7.17-2.69,12.29-2.69,6.4,0,11.28,1.5,14.64,4.51,3.36,3.01,5.04,7.33,5.04,12.96v36.38h-10.46Z"/>
    <path class="cls-1" d="M266.71,100.13c-3.39,0-6.14-.92-8.26-2.76s-3.17-4.41-3.17-7.7,1.06-5.86,3.17-7.7c2.11-1.84,4.86-2.76,8.26-2.76.13,0,.27.02.43.05.16.03.34.05.53.05v-2.34c0-1.75-.38-2.99-1.15-3.74-.77-.75-2.24-1.22-4.42-1.4l-23.71-1.82v-4.99c0-3.14.54-5.94,1.63-8.4,1.09-2.46,2.64-4.54,4.66-6.24,2.02-1.7,4.43-2.99,7.25-3.89,2.82-.89,5.95-1.34,9.41-1.34,5.12,0,9.38.75,12.77,2.26,3.39,1.5,6.11,3.5,8.16,6l-5.28,6.62c-1.67-2.18-3.71-3.94-6.14-5.28-2.43-1.34-5.41-2.02-8.93-2.02-4.22,0-7.54.86-9.94,2.59-2.4,1.73-3.6,4.32-3.6,7.78v.29l15.65,1.06c2.24.13,4.24.42,6,.86,1.76.45,3.23,1.15,4.42,2.11,1.18.96,2.1,2.24,2.74,3.84.64,1.6.96,3.65.96,6.14v12.38c0,3.26-1.06,5.81-3.17,7.63s-4.86,2.74-8.26,2.74ZM266.23,84.58c-1.47,0-2.66.46-3.55,1.39-.9.93-1.34,2.16-1.34,3.7s.45,2.77,1.34,3.7c.9.93,2.08,1.39,3.55,1.39s2.65-.46,3.55-1.39c.9-.93,1.34-2.16,1.34-3.7s-.45-2.77-1.34-3.7c-.9-.93-2.08-1.39-3.55-1.39Z"/>
    <path class="cls-1" d="M302.51,91.39v-25.73h-.77c-3.33,0-6.03-.91-8.11-2.74-2.08-1.82-3.12-4.33-3.12-7.54s1.04-5.71,3.12-7.54c2.08-1.82,4.78-2.74,8.11-2.74s6.03.91,8.11,2.74,3.12,4.34,3.12,7.54v36h12.29c3.13,0,5.57-.8,7.3-2.4,1.73-1.6,2.59-3.87,2.59-6.82v-35.9h10.46v35.81c0,5.38-1.7,9.54-5.09,12.48-3.39,2.94-8.1,4.42-14.11,4.42h-31.87v-7.58h7.97ZM301.46,60.29c1.41,0,2.53-.45,3.36-1.34.83-.9,1.25-2.08,1.25-3.55s-.42-2.66-1.25-3.55c-.83-.9-1.95-1.34-3.36-1.34s-2.53.45-3.36,1.34-1.25,2.08-1.25,3.55.42,2.66,1.25,3.55c.83.9,1.95,1.34,3.36,1.34Z"/>
    <path class="cls-1" d="M384.5,98.98v-35.81c0-3.26-.83-5.78-2.5-7.54-1.67-1.76-4.22-2.64-7.68-2.64-3.07,0-5.55.71-7.44,2.11-1.89,1.41-3.47,3.14-4.75,5.18l-6.34-5.47c1.73-2.88,4.13-5.22,7.2-7.01,3.07-1.79,7.17-2.69,12.29-2.69,6.4,0,11.28,1.5,14.64,4.51,3.36,3.01,5.04,7.33,5.04,12.96v36.38h-10.46Z"/>
    <path class="cls-1" d="M436.15,100.13c-3.39,0-6.14-.92-8.26-2.76-2.11-1.84-3.17-4.41-3.17-7.7s1.06-5.86,3.17-7.7c2.11-1.84,4.86-2.76,8.26-2.76.13,0,.27.02.43.05.16.03.34.05.53.05v-2.34c0-1.75-.38-2.99-1.15-3.74-.77-.75-2.24-1.22-4.42-1.4l-23.71-1.82v-4.99c0-3.14.54-5.94,1.63-8.4,1.09-2.46,2.64-4.54,4.66-6.24,2.02-1.7,4.43-2.99,7.25-3.89,2.82-.89,5.95-1.34,9.41-1.34,5.12,0,9.38.75,12.77,2.26,3.39,1.5,6.11,3.5,8.16,6l-5.28,6.62c-1.67-2.18-3.71-3.94-6.14-5.28-2.43-1.34-5.41-2.02-8.93-2.02-4.22,0-7.54.86-9.94,2.59-2.4,1.73-3.6,4.32-3.6,7.78v.29l15.65,1.06c2.24.13,4.24.42,6,.86,1.76.45,3.23,1.15,4.42,2.11,1.18.96,2.1,2.24,2.74,3.84.64,1.6.96,3.65.96,6.14v12.38c0,3.26-1.06,5.81-3.17,7.63-2.11,1.82-4.87,2.74-8.26,2.74ZM435.67,84.58c-1.47,0-2.66.46-3.55,1.39-.9.93-1.34,2.16-1.34,3.7s.45,2.77,1.34,3.7c.9.93,2.08,1.39,3.55,1.39s2.66-.46,3.55-1.39c.89-.93,1.34-2.16,1.34-3.7s-.45-2.77-1.34-3.7c-.9-.93-2.08-1.39-3.55-1.39Z"/>
    <path class="cls-1" d="M437.87,37.25c-3.2,0-5.81-.9-7.82-2.69-2.02-1.79-3.02-4.22-3.02-7.3,0-3.65,1.17-6.37,3.5-8.16,2.34-1.79,5.65-2.69,9.94-2.69h12.77l1.44-6.05,9.22,1.73-1.15,4.7c-.45,1.86-1.2,3.36-2.26,4.51-1.06,1.15-2.9,1.73-5.52,1.73h-7.92c-.42,0-.85-.03-1.3-.1l-.1.19c.9.64,1.55,1.39,1.97,2.26.42.86.62,1.81.62,2.83,0,2.56-.93,4.7-2.78,6.43-1.86,1.73-4.38,2.59-7.58,2.59ZM437.87,31.87c1.41,0,2.5-.4,3.26-1.2.77-.8,1.15-1.94,1.15-3.41s-.38-2.61-1.15-3.41c-.77-.8-1.86-1.2-3.26-1.2s-2.5.4-3.26,1.2c-.77.8-1.15,1.94-1.15,3.41s.38,2.61,1.15,3.41c.77.8,1.86,1.2,3.26,1.2Z"/>
    <path class="cls-1" d="M471.86,65.66h-.77c-3.33,0-6.03-.91-8.11-2.74-2.08-1.82-3.12-4.33-3.12-7.54s1.04-5.71,3.12-7.54c2.08-1.82,4.78-2.74,8.11-2.74s6.03.91,8.11,2.74c2.08,1.82,3.12,4.34,3.12,7.54v18.72l-.48,15.07h.48l11.33-41.38h6.14l11.33,41.38h.48l-.48-15.07V28.61h10.46v64.61c0,1.73-.45,3.12-1.34,4.18-.9,1.06-2.27,1.58-4.13,1.58h-8.26l-10.94-39.74h-.38l-10.94,39.74h-13.73v-33.31ZM470.8,60.29c1.41,0,2.53-.45,3.36-1.34.83-.9,1.25-2.08,1.25-3.55s-.42-2.66-1.25-3.55c-.83-.9-1.95-1.34-3.36-1.34s-2.53.45-3.36,1.34-1.25,2.08-1.25,3.55.42,2.66,1.25,3.55c.83.9,1.95,1.34,3.36,1.34Z"/>
    <path class="cls-1" d="M11.63,169.12c0-4.67.43-9.15,1.3-13.44.86-4.29,2.06-8.29,3.6-12,1.54-3.71,3.34-7.07,5.42-10.08,2.08-3.01,4.33-5.54,6.77-7.58h9.89c-2.62,2.43-4.99,5.15-7.1,8.16-2.11,3.01-3.9,6.21-5.38,9.6-1.47,3.39-2.61,6.91-3.41,10.56-.8,3.65-1.2,7.29-1.2,10.94v7.68c0,3.65.4,7.3,1.2,10.95.8,3.65,1.93,7.17,3.41,10.56,1.47,3.39,3.26,6.61,5.38,9.65,2.11,3.04,4.48,5.74,7.1,8.11h-9.89c-2.43-2.05-4.69-4.58-6.77-7.58-2.08-3.01-3.89-6.37-5.42-10.08-1.54-3.71-2.74-7.71-3.6-12-.86-4.29-1.3-8.77-1.3-13.44Z"/>
    <path class="cls-1" d="M46.1,131.97h29.66c5.57,0,9.94,1.57,13.1,4.7,3.17,3.14,4.75,7.33,4.75,12.58,0,2.5-.35,4.62-1.06,6.38-.71,1.76-1.6,3.2-2.69,4.32-1.09,1.12-2.34,1.95-3.74,2.5-1.41.54-2.78.88-4.13,1.01v.58c1.34.06,2.83.38,4.46.96,1.63.58,3.15,1.49,4.56,2.74,1.41,1.25,2.59,2.85,3.55,4.8.96,1.95,1.44,4.34,1.44,7.15s-.43,5.22-1.3,7.58c-.86,2.37-2.06,4.42-3.6,6.14-1.54,1.73-3.36,3.09-5.47,4.08-2.11.99-4.42,1.49-6.91,1.49h-32.64v-67.01ZM56.95,160.29h16.8c2.69,0,4.77-.69,6.24-2.06,1.47-1.38,2.21-3.34,2.21-5.9v-3.07c0-2.56-.74-4.53-2.21-5.9-1.47-1.38-3.55-2.06-6.24-2.06h-16.8v19.01ZM56.95,189.66h18.62c2.82,0,5.02-.74,6.62-2.21,1.6-1.47,2.4-3.58,2.4-6.34v-3.26c0-2.75-.8-4.86-2.4-6.34-1.6-1.47-3.81-2.21-6.62-2.21h-18.62v20.35Z"/>
    <path class="cls-1" d="M150.07,198.98l-6.05-18.14h-25.06l-5.86,18.14h-11.04l22.85-67.01h13.63l22.85,67.01h-11.33ZM131.73,141.95h-.48l-9.7,29.57h19.78l-9.6-29.57Z"/>
    <path class="cls-1" d="M182.61,198.98h-10.85v-67.01h28.9c6.01,0,10.75,1.81,14.21,5.42,3.46,3.62,5.18,8.53,5.18,14.74,0,4.8-1.1,8.79-3.31,11.95-2.21,3.17-5.46,5.39-9.74,6.67l14.5,28.22h-12.1l-13.44-27.07h-13.34v27.07ZM199.89,162.78c2.75,0,4.9-.71,6.43-2.15,1.54-1.43,2.3-3.49,2.3-6.17v-4.59c0-2.68-.77-4.73-2.3-6.16-1.54-1.43-3.68-2.15-6.43-2.15h-17.28v21.22h17.28Z"/>
    <path class="cls-1" d="M234.64,198.98v-67.01h41.86v9.6h-31.01v18.62h27.55v9.6h-27.55v29.18h-10.85Z"/>
    <path class="cls-1" d="M308.75,169.12c0,4.67-.43,9.15-1.3,13.44-.86,4.29-2.06,8.29-3.6,12-1.54,3.71-3.34,7.07-5.42,10.08-2.08,3.01-4.34,5.54-6.77,7.58h-9.89c2.62-2.37,4.99-5.07,7.1-8.11,2.11-3.04,3.9-6.25,5.38-9.65,1.47-3.39,2.61-6.91,3.41-10.56.8-3.65,1.2-7.3,1.2-10.95v-7.68c0-3.65-.4-7.3-1.2-10.94-.8-3.65-1.94-7.17-3.41-10.56-1.47-3.39-3.26-6.59-5.38-9.6-2.11-3.01-4.48-5.73-7.1-8.16h9.89c2.43,2.05,4.69,4.58,6.77,7.58,2.08,3.01,3.89,6.37,5.42,10.08,1.54,3.71,2.74,7.71,3.6,12,.86,4.29,1.3,8.77,1.3,13.44Z"/>
  </g>
  <g>
    <path class="cls-2" d="M37.27,100.13c-7.17,0-12.64-1.34-16.42-4.03-3.78-2.69-5.66-6.75-5.66-12.19v-8.83c0-3.71,1.06-6.64,3.17-8.79,2.11-2.14,4.86-3.21,8.26-3.21s6.14.92,8.26,2.76c2.11,1.84,3.17,4.38,3.17,7.61s-1.06,5.77-3.17,7.61c-2.11,1.84-4.86,2.76-8.26,2.76h-.96v1.13c0,2.25.7,4.02,2.11,5.3,1.41,1.28,3.55,1.92,6.43,1.92h6.14c2.88,0,5.02-.66,6.43-1.97,1.41-1.31,2.11-3.12,2.11-5.42v-18.24c0-4.22-1.33-7.54-3.98-9.94-2.66-2.4-6.32-3.6-10.99-3.6-2.24,0-4.26.24-6.05.72-1.79.48-3.41,1.14-4.85,1.97-1.44.83-2.69,1.79-3.74,2.88-1.06,1.09-1.97,2.24-2.74,3.46l-6.34-5.76c1.98-3.07,5.01-5.7,9.07-7.87,4.06-2.17,9.33-3.26,15.79-3.26,7.74,0,13.73,1.86,17.95,5.57,4.22,3.71,6.34,8.87,6.34,15.46v17.76c0,5.44-1.89,9.5-5.66,12.19-3.78,2.69-9.25,4.03-16.42,4.03ZM27.09,78.43c1.47,0,2.64-.45,3.5-1.34.86-.9,1.3-2.11,1.3-3.65s-.43-2.75-1.3-3.65c-.86-.89-2.03-1.34-3.5-1.34s-2.64.45-3.5,1.34c-.86.9-1.3,2.11-1.3,3.65s.43,2.75,1.3,3.65,2.03,1.34,3.5,1.34Z"/>
    <path class="cls-2" d="M96.31,98.98v-35.81c0-3.26-.83-5.78-2.5-7.54-1.67-1.76-4.22-2.64-7.68-2.64-3.07,0-5.55.71-7.44,2.11-1.89,1.41-3.47,3.14-4.75,5.18l-6.34-5.47c1.73-2.88,4.13-5.22,7.2-7.01,3.07-1.79,7.17-2.69,12.29-2.69,6.4,0,11.28,1.5,14.64,4.51,3.36,3.01,5.04,7.33,5.04,12.96v36.38h-10.46Z"/>
    <path class="cls-2" d="M130.19,98.98v-33.31h-.77c-3.33,0-6.03-.91-8.11-2.74-2.08-1.82-3.12-4.33-3.12-7.54s1.04-5.71,3.12-7.54c2.08-1.82,4.78-2.74,8.11-2.74s6.03.91,8.11,2.74c2.08,1.82,3.12,4.34,3.12,7.54v14.78l16.7-8.06c-1.34-1.6-2.02-3.74-2.02-6.43,0-3.26,1.04-5.82,3.12-7.68,2.08-1.86,4.78-2.78,8.11-2.78s6.03.93,8.11,2.78c2.08,1.86,3.12,4.42,3.12,7.68,0,2.62-.67,4.79-2.02,6.48-1.34,1.7-3.14,2.86-5.38,3.5,1.47,1.15,2.21,2.85,2.21,5.09v28.22h-10.46v-31.1h-.48l-21.02,9.98v21.12h-10.46ZM129.14,60.29c1.41,0,2.53-.45,3.36-1.34.83-.9,1.25-2.08,1.25-3.55s-.42-2.66-1.25-3.55c-.83-.9-1.95-1.34-3.36-1.34s-2.53.45-3.36,1.34c-.83.9-1.25,2.08-1.25,3.55s.42,2.66,1.25,3.55c.83.9,1.95,1.34,3.36,1.34ZM166.58,60.77c1.54,0,2.74-.38,3.6-1.15.86-.77,1.3-1.82,1.3-3.17v-1.73c0-1.34-.43-2.4-1.3-3.17-.86-.77-2.06-1.15-3.6-1.15s-2.74.38-3.6,1.15c-.86.77-1.3,1.82-1.3,3.17v1.73c0,1.34.43,2.4,1.3,3.17.86.77,2.06,1.15,3.6,1.15Z"/>
    <path class="cls-2" d="M215.06,98.98v-35.81c0-3.26-.83-5.78-2.5-7.54-1.67-1.76-4.22-2.64-7.68-2.64-3.07,0-5.55.71-7.44,2.11-1.89,1.41-3.47,3.14-4.75,5.18l-6.34-5.47c1.73-2.88,4.13-5.22,7.2-7.01,3.07-1.79,7.17-2.69,12.29-2.69,6.4,0,11.28,1.5,14.64,4.51,3.36,3.01,5.04,7.33,5.04,12.96v36.38h-10.46Z"/>
    <path class="cls-2" d="M266.71,100.13c-3.39,0-6.14-.92-8.26-2.76s-3.17-4.41-3.17-7.7,1.06-5.86,3.17-7.7c2.11-1.84,4.86-2.76,8.26-2.76.13,0,.27.02.43.05.16.03.34.05.53.05v-2.34c0-1.75-.38-2.99-1.15-3.74-.77-.75-2.24-1.22-4.42-1.4l-23.71-1.82v-4.99c0-3.14.54-5.94,1.63-8.4,1.09-2.46,2.64-4.54,4.66-6.24,2.02-1.7,4.43-2.99,7.25-3.89,2.82-.89,5.95-1.34,9.41-1.34,5.12,0,9.38.75,12.77,2.26,3.39,1.5,6.11,3.5,8.16,6l-5.28,6.62c-1.67-2.18-3.71-3.94-6.14-5.28-2.43-1.34-5.41-2.02-8.93-2.02-4.22,0-7.54.86-9.94,2.59-2.4,1.73-3.6,4.32-3.6,7.78v.29l15.65,1.06c2.24.13,4.24.42,6,.86,1.76.45,3.23,1.15,4.42,2.11,1.18.96,2.1,2.24,2.74,3.84.64,1.6.96,3.65.96,6.14v12.38c0,3.26-1.06,5.81-3.17,7.63s-4.86,2.74-8.26,2.74ZM266.23,84.58c-1.47,0-2.66.46-3.55,1.39-.9.93-1.34,2.16-1.34,3.7s.45,2.77,1.34,3.7c.9.93,2.08,1.39,3.55,1.39s2.65-.46,3.55-1.39c.9-.93,1.34-2.16,1.34-3.7s-.45-2.77-1.34-3.7c-.9-.93-2.08-1.39-3.55-1.39Z"/>
    <path class="cls-2" d="M302.51,91.39v-25.73h-.77c-3.33,0-6.03-.91-8.11-2.74-2.08-1.82-3.12-4.33-3.12-7.54s1.04-5.71,3.12-7.54c2.08-1.82,4.78-2.74,8.11-2.74s6.03.91,8.11,2.74,3.12,4.34,3.12,7.54v36h12.29c3.13,0,5.57-.8,7.3-2.4,1.73-1.6,2.59-3.87,2.59-6.82v-35.9h10.46v35.81c0,5.38-1.7,9.54-5.09,12.48-3.39,2.94-8.1,4.42-14.11,4.42h-31.87v-7.58h7.97ZM301.46,60.29c1.41,0,2.53-.45,3.36-1.34.83-.9,1.25-2.08,1.25-3.55s-.42-2.66-1.25-3.55c-.83-.9-1.95-1.34-3.36-1.34s-2.53.45-3.36,1.34-1.25,2.08-1.25,3.55.42,2.66,1.25,3.55c.83.9,1.95,1.34,3.36,1.34Z"/>
    <path class="cls-2" d="M384.5,98.98v-35.81c0-3.26-.83-5.78-2.5-7.54-1.67-1.76-4.22-2.64-7.68-2.64-3.07,0-5.55.71-7.44,2.11-1.89,1.41-3.47,3.14-4.75,5.18l-6.34-5.47c1.73-2.88,4.13-5.22,7.2-7.01,3.07-1.79,7.17-2.69,12.29-2.69,6.4,0,11.28,1.5,14.64,4.51,3.36,3.01,5.04,7.33,5.04,12.96v36.38h-10.46Z"/>
    <path class="cls-2" d="M436.15,100.13c-3.39,0-6.14-.92-8.26-2.76-2.11-1.84-3.17-4.41-3.17-7.7s1.06-5.86,3.17-7.7c2.11-1.84,4.86-2.76,8.26-2.76.13,0,.27.02.43.05.16.03.34.05.53.05v-2.34c0-1.75-.38-2.99-1.15-3.74-.77-.75-2.24-1.22-4.42-1.4l-23.71-1.82v-4.99c0-3.14.54-5.94,1.63-8.4,1.09-2.46,2.64-4.54,4.66-6.24,2.02-1.7,4.43-2.99,7.25-3.89,2.82-.89,5.95-1.34,9.41-1.34,5.12,0,9.38.75,12.77,2.26,3.39,1.5,6.11,3.5,8.16,6l-5.28,6.62c-1.67-2.18-3.71-3.94-6.14-5.28-2.43-1.34-5.41-2.02-8.93-2.02-4.22,0-7.54.86-9.94,2.59-2.4,1.73-3.6,4.32-3.6,7.78v.29l15.65,1.06c2.24.13,4.24.42,6,.86,1.76.45,3.23,1.15,4.42,2.11,1.18.96,2.1,2.24,2.74,3.84.64,1.6.96,3.65.96,6.14v12.38c0,3.26-1.06,5.81-3.17,7.63-2.11,1.82-4.87,2.74-8.26,2.74ZM435.67,84.58c-1.47,0-2.66.46-3.55,1.39-.9.93-1.34,2.16-1.34,3.7s.45,2.77,1.34,3.7c.9.93,2.08,1.39,3.55,1.39s2.66-.46,3.55-1.39c.89-.93,1.34-2.16,1.34-3.7s-.45-2.77-1.34-3.7c-.9-.93-2.08-1.39-3.55-1.39Z"/>
    <path class="cls-2" d="M437.87,37.25c-3.2,0-5.81-.9-7.82-2.69-2.02-1.79-3.02-4.22-3.02-7.3,0-3.65,1.17-6.37,3.5-8.16,2.34-1.79,5.65-2.69,9.94-2.69h12.77l1.44-6.05,9.22,1.73-1.15,4.7c-.45,1.86-1.2,3.36-2.26,4.51-1.06,1.15-2.9,1.73-5.52,1.73h-7.92c-.42,0-.85-.03-1.3-.1l-.1.19c.9.64,1.55,1.39,1.97,2.26.42.86.62,1.81.62,2.83,0,2.56-.93,4.7-2.78,6.43-1.86,1.73-4.38,2.59-7.58,2.59ZM437.87,31.87c1.41,0,2.5-.4,3.26-1.2.77-.8,1.15-1.94,1.15-3.41s-.38-2.61-1.15-3.41c-.77-.8-1.86-1.2-3.26-1.2s-2.5.4-3.26,1.2c-.77.8-1.15,1.94-1.15,3.41s.38,2.61,1.15,3.41c.77.8,1.86,1.2,3.26,1.2Z"/>
    <path class="cls-2" d="M471.86,65.66h-.77c-3.33,0-6.03-.91-8.11-2.74-2.08-1.82-3.12-4.33-3.12-7.54s1.04-5.71,3.12-7.54c2.08-1.82,4.78-2.74,8.11-2.74s6.03.91,8.11,2.74c2.08,1.82,3.12,4.34,3.12,7.54v18.72l-.48,15.07h.48l11.33-41.38h6.14l11.33,41.38h.48l-.48-15.07V28.61h10.46v64.61c0,1.73-.45,3.12-1.34,4.18-.9,1.06-2.27,1.58-4.13,1.58h-8.26l-10.94-39.74h-.38l-10.94,39.74h-13.73v-33.31ZM470.8,60.29c1.41,0,2.53-.45,3.36-1.34.83-.9,1.25-2.08,1.25-3.55s-.42-2.66-1.25-3.55c-.83-.9-1.95-1.34-3.36-1.34s-2.53.45-3.36,1.34-1.25,2.08-1.25,3.55.42,2.66,1.25,3.55c.83.9,1.95,1.34,3.36,1.34Z"/>
    <path class="cls-2" d="M11.63,169.12c0-4.67.43-9.15,1.3-13.44.86-4.29,2.06-8.29,3.6-12,1.54-3.71,3.34-7.07,5.42-10.08,2.08-3.01,4.33-5.54,6.77-7.58h9.89c-2.62,2.43-4.99,5.15-7.1,8.16-2.11,3.01-3.9,6.21-5.38,9.6-1.47,3.39-2.61,6.91-3.41,10.56-.8,3.65-1.2,7.29-1.2,10.94v7.68c0,3.65.4,7.3,1.2,10.95.8,3.65,1.93,7.17,3.41,10.56,1.47,3.39,3.26,6.61,5.38,9.65,2.11,3.04,4.48,5.74,7.1,8.11h-9.89c-2.43-2.05-4.69-4.58-6.77-7.58-2.08-3.01-3.89-6.37-5.42-10.08-1.54-3.71-2.74-7.71-3.6-12-.86-4.29-1.3-8.77-1.3-13.44Z"/>
    <path class="cls-2" d="M46.1,131.97h29.66c5.57,0,9.94,1.57,13.1,4.7,3.17,3.14,4.75,7.33,4.75,12.58,0,2.5-.35,4.62-1.06,6.38-.71,1.76-1.6,3.2-2.69,4.32-1.09,1.12-2.34,1.95-3.74,2.5-1.41.54-2.78.88-4.13,1.01v.58c1.34.06,2.83.38,4.46.96,1.63.58,3.15,1.49,4.56,2.74,1.41,1.25,2.59,2.85,3.55,4.8.96,1.95,1.44,4.34,1.44,7.15s-.43,5.22-1.3,7.58c-.86,2.37-2.06,4.42-3.6,6.14-1.54,1.73-3.36,3.09-5.47,4.08-2.11.99-4.42,1.49-6.91,1.49h-32.64v-67.01ZM56.95,160.29h16.8c2.69,0,4.77-.69,6.24-2.06,1.47-1.38,2.21-3.34,2.21-5.9v-3.07c0-2.56-.74-4.53-2.21-5.9-1.47-1.38-3.55-2.06-6.24-2.06h-16.8v19.01ZM56.95,189.66h18.62c2.82,0,5.02-.74,6.62-2.21,1.6-1.47,2.4-3.58,2.4-6.34v-3.26c0-2.75-.8-4.86-2.4-6.34-1.6-1.47-3.81-2.21-6.62-2.21h-18.62v20.35Z"/>
    <path class="cls-2" d="M150.07,198.98l-6.05-18.14h-25.06l-5.86,18.14h-11.04l22.85-67.01h13.63l22.85,67.01h-11.33ZM131.73,141.95h-.48l-9.7,29.57h19.78l-9.6-29.57Z"/>
    <path class="cls-2" d="M182.61,198.98h-10.85v-67.01h28.9c6.01,0,10.75,1.81,14.21,5.42,3.46,3.62,5.18,8.53,5.18,14.74,0,4.8-1.1,8.79-3.31,11.95-2.21,3.17-5.46,5.39-9.74,6.67l14.5,28.22h-12.1l-13.44-27.07h-13.34v27.07ZM199.89,162.78c2.75,0,4.9-.71,6.43-2.15,1.54-1.43,2.3-3.49,2.3-6.17v-4.59c0-2.68-.77-4.73-2.3-6.16-1.54-1.43-3.68-2.15-6.43-2.15h-17.28v21.22h17.28Z"/>
    <path class="cls-2" d="M234.64,198.98v-67.01h41.86v9.6h-31.01v18.62h27.55v9.6h-27.55v29.18h-10.85Z"/>
    <path class="cls-2" d="M308.75,169.12c0,4.67-.43,9.15-1.3,13.44-.86,4.29-2.06,8.29-3.6,12-1.54,3.71-3.34,7.07-5.42,10.08-2.08,3.01-4.34,5.54-6.77,7.58h-9.89c2.62-2.37,4.99-5.07,7.1-8.11,2.11-3.04,3.9-6.25,5.38-9.65,1.47-3.39,2.61-6.91,3.41-10.56.8-3.65,1.2-7.3,1.2-10.95v-7.68c0-3.65-.4-7.3-1.2-10.94-.8-3.65-1.94-7.17-3.41-10.56-1.47-3.39-3.26-6.59-5.38-9.6-2.11-3.01-4.48-5.73-7.1-8.16h9.89c2.43,2.05,4.69,4.58,6.77,7.58,2.08,3.01,3.89,6.37,5.42,10.08,1.54,3.71,2.74,7.71,3.6,12,.86,4.29,1.3,8.77,1.3,13.44Z"/>
  </g>
</svg>